<svg width="191" height="121" viewBox="0 0 191 121" fill="none" xmlns="http://www.w3.org/2000/svg">
<g clip-path="url(#clip0_1269_19320)">
<path d="M26.344 111.979C26.5786 111.418 27.1274 111.053 27.7357 111.053H76.5594C77.1678 111.053 77.7166 111.418 77.9511 111.979L80.6617 118.465C81.077 119.459 80.347 120.555 79.27 120.555H25.0251C23.9481 120.555 23.2181 119.459 23.6334 118.465L26.344 111.979Z" fill="#773001"/>
<g opacity="0.2">
<path d="M40.2201 111.053H27.7914C27.1501 111.053 26.5717 111.437 26.3251 112.027L23.6776 118.362C23.3754 119.085 23.6519 119.859 24.2274 120.267C30.6719 119.291 36.3215 115.901 40.2201 111.053Z" fill="black"/>
<path d="M75.0547 111.053H76.5059C77.1472 111.053 77.7256 111.437 77.9722 112.027L80.6198 118.362C81.0557 119.406 80.287 120.555 79.1535 120.555H62.9019C65.844 116.251 70.0814 112.898 75.0547 111.053Z" fill="black"/>
</g>
<path d="M38.6467 115.156C38.6467 115.028 38.727 114.916 38.8316 114.842C39.1254 114.634 39.3218 114.256 39.3218 113.824C39.3218 113.624 39.4663 113.428 39.6669 113.428H64.6313C64.832 113.428 64.9764 113.624 64.9764 113.824C64.9764 114.256 65.1728 114.634 65.4666 114.842C65.5713 114.916 65.6515 115.028 65.6515 115.156V116.452C65.6515 116.58 65.5713 116.692 65.4666 116.766C65.1728 116.974 64.9764 117.352 64.9764 117.784C64.9764 117.984 64.832 118.18 64.6313 118.18H39.6669C39.4663 118.18 39.3218 117.984 39.3218 117.784C39.3218 117.352 39.1254 116.974 38.8316 116.766C38.727 116.692 38.6467 116.58 38.6467 116.452V115.156Z" fill="#9E9FCB"/>
<path d="M41.03 116.596C41.4686 116.596 41.8242 116.241 41.8242 115.804C41.8242 115.367 41.4686 115.012 41.03 115.012C40.5913 115.012 40.2357 115.367 40.2357 115.804C40.2357 116.241 40.5913 116.596 41.03 116.596Z" fill="#C2C0E6"/>
<path d="M63.2692 116.596C63.7079 116.596 64.0635 116.241 64.0635 115.804C64.0635 115.367 63.7079 115.012 63.2692 115.012C62.8306 115.012 62.475 115.367 62.475 115.804C62.475 116.241 62.8306 116.596 63.2692 116.596Z" fill="#C2C0E6"/>
<path opacity="0.2" d="M28.4631 111.053L14.1665 46.9109H90.4153L76.1186 111.053H28.4631Z" fill="#C2C0E6"/>
<path d="M13.8161 52.7056C16.7792 71.1697 33.0672 85.2905 52.7162 85.2905C72.1664 85.2905 88.3232 71.4541 91.5222 53.2648C91.9318 51.5571 92.1013 50.1931 92.0495 49.0246C92.0495 47.6858 91.0721 46.6465 89.7169 46.6465H87.5186H18.2834H15.7496C14.3969 46.6465 13.4206 47.682 13.417 49.0171C13.417 49.0195 13.415 49.0215 13.4126 49.0214C13.4101 49.0213 13.4081 49.0234 13.4082 49.0259C13.41 49.0542 13.4118 49.0826 13.4136 49.1109C13.3783 50.1287 13.5084 51.2951 13.8161 52.7056L13.8161 52.7056Z" fill="#C2C0E6"/>
<path d="M91.3965 53.9432C91.4404 53.7177 91.4823 53.4916 91.5222 53.2648C91.9318 51.5571 92.1013 50.1931 92.0495 49.0246C92.0495 47.6858 91.0721 46.6465 89.7169 46.6465H15.7496C14.3969 46.6465 13.4206 47.682 13.417 49.0171C13.417 49.0195 13.415 49.0215 13.4126 49.0214C13.4101 49.0213 13.4081 49.0234 13.4082 49.0259L13.4136 49.1109C13.3812 50.0429 13.4876 51.0994 13.742 52.3539C20.7788 59.2818 35.923 64.0742 53.4705 64.0742C69.6418 64.0742 83.7721 60.004 91.3965 53.9432Z" fill="#9E9FCB"/>
<path d="M72.1962 108.083C70.7432 99.032 62.7558 92.1101 53.1202 92.1101C43.5822 92.1101 35.6591 98.8926 34.0903 107.809C33.8895 108.646 33.8064 109.315 33.8318 109.887C33.8318 110.544 34.3111 111.053 34.9756 111.053H36.0537H70.0055H71.2481C71.9114 111.053 72.3901 110.546 72.3919 109.891C72.3919 109.89 72.3929 109.889 72.3941 109.889C72.3953 109.889 72.3963 109.888 72.3962 109.887C72.3954 109.873 72.3945 109.859 72.3936 109.845C72.4109 109.346 72.3471 108.774 72.1962 108.083Z" fill="#C2C0E6"/>
<path d="M72.0482 107.279C72.1031 107.545 72.1522 107.813 72.1956 108.083C72.3465 108.775 72.4103 109.346 72.3929 109.845L72.3956 109.887L72.3934 109.889L72.3913 109.891C72.3895 110.546 71.9107 111.053 71.2474 111.053H34.975C34.3104 111.053 33.8311 110.544 33.8311 109.888C33.8057 109.315 33.8888 108.646 34.0897 107.809C34.0958 107.774 34.102 107.74 34.1083 107.705C39.8263 104.53 46.4336 102.719 53.4722 102.719C60.1898 102.719 66.5145 104.369 72.0482 107.279Z" fill="#9E9FCB"/>
<path d="M14.0928 92.345C14.1459 92.2452 14.289 92.2452 14.3422 92.345C14.7989 93.204 15.5037 93.9066 16.3638 94.3612C16.4641 94.4143 16.4641 94.5582 16.3638 94.6112C15.5037 95.0659 14.7989 95.7685 14.3422 96.6275C14.289 96.7273 14.1459 96.7273 14.0928 96.6275C13.6361 95.7685 12.9313 95.0659 12.0712 94.6112C11.9708 94.5582 11.9708 94.4143 12.0712 94.3612C12.9313 93.9066 13.6361 93.204 14.0928 92.345Z" fill="#C2C0E6"/>
<path d="M8.56616 34.0305C8.65953 33.8544 8.91181 33.8544 9.00518 34.0305C9.80704 35.5429 11.0442 36.78 12.5566 37.5819C12.7327 37.6753 12.7327 37.9276 12.5566 38.0209C11.0442 38.8228 9.80704 40.0599 9.00518 41.5724C8.91181 41.7485 8.65953 41.7485 8.56616 41.5724C7.7643 40.0599 6.52717 38.8228 5.01473 38.0209C4.83863 37.9276 4.83863 37.6753 5.01473 37.5819C6.52717 36.78 7.7643 35.5429 8.56616 34.0305Z" fill="#C2C0E6"/>
<path d="M12.1201 23.3885C12.1732 23.2886 12.3163 23.2886 12.3694 23.3885C12.8261 24.2474 13.5309 24.9501 14.391 25.4047C14.4914 25.4577 14.4914 25.6017 14.391 25.6547C13.5309 26.1093 12.8261 26.812 12.3694 27.6709C12.3163 27.7708 12.1732 27.7708 12.1201 27.6709C11.6633 26.812 10.9585 26.1093 10.0984 25.6547C9.99807 25.6017 9.99807 25.4577 10.0984 25.4047C10.9585 24.9501 11.6633 24.2474 12.1201 23.3885Z" fill="#C2C0E6"/>
<path d="M30.0126 68.8762C30.145 68.6272 30.5018 68.6272 30.6342 68.8762C31.2856 70.1012 32.2899 71.1028 33.5166 71.7512C33.7666 71.8834 33.7666 72.2417 33.5166 72.3739C32.2899 73.0223 31.2856 74.0239 30.6342 75.249C30.5018 75.4979 30.145 75.4979 30.0126 75.249C29.3612 74.0239 28.3569 73.0223 27.1302 72.3739C26.8802 72.2417 26.8802 71.8834 27.1302 71.7512C28.3569 71.1028 29.3612 70.1012 30.0126 68.8762Z" fill="white"/>
<path d="M127.869 113.393C128.064 112.925 128.521 112.621 129.028 112.621H169.715C170.222 112.621 170.679 112.925 170.874 113.393L173.133 118.798C173.479 119.626 172.871 120.539 171.974 120.539H126.769C125.872 120.539 125.264 119.626 125.61 118.798L127.869 113.393Z" fill="#773001"/>
<g opacity="0.2">
<path d="M139.432 112.621H129.075C128.54 112.621 128.058 112.941 127.853 113.433L125.647 118.712C125.395 119.314 125.625 119.96 126.105 120.299C131.475 119.485 136.183 116.661 139.432 112.621Z" fill="black"/>
<path d="M168.461 112.621H169.67C170.205 112.621 170.687 112.941 170.892 113.433L173.099 118.712C173.462 119.581 172.821 120.539 171.877 120.539H158.334C160.785 116.953 164.316 114.158 168.461 112.621Z" fill="black"/>
</g>
<path d="M138.12 116.04C138.12 115.933 138.187 115.84 138.274 115.778C138.519 115.605 138.683 115.29 138.683 114.93C138.683 114.764 138.803 114.6 138.971 114.6H159.774C159.941 114.6 160.062 114.764 160.062 114.93C160.062 115.29 160.225 115.605 160.47 115.778C160.557 115.84 160.624 115.933 160.624 116.04V117.12C160.624 117.227 160.557 117.32 160.47 117.382C160.225 117.555 160.062 117.87 160.062 118.23C160.062 118.397 159.941 118.56 159.774 118.56H138.971C138.803 118.56 138.683 118.397 138.683 118.23C138.683 117.87 138.519 117.555 138.274 117.382C138.187 117.32 138.12 117.227 138.12 117.12V116.04Z" fill="#C07B4D"/>
<path d="M140.106 117.24C140.472 117.24 140.768 116.944 140.768 116.58C140.768 116.215 140.472 115.92 140.106 115.92C139.741 115.92 139.444 116.215 139.444 116.58C139.444 116.944 139.741 117.24 140.106 117.24Z" fill="#E09767"/>
<path d="M158.639 117.24C159.004 117.24 159.301 116.944 159.301 116.58C159.301 116.215 159.004 115.92 158.639 115.92C158.273 115.92 157.977 116.215 157.977 116.58C157.977 116.944 158.273 117.24 158.639 117.24Z" fill="#E09767"/>
<path opacity="0.2" d="M130.018 112.62L118.105 59.1685H181.645L169.731 112.62H130.018Z" fill="#E09767"/>
<path d="M117.428 63.9965C119.897 79.3833 133.47 91.1506 149.844 91.1506C166.053 91.1506 179.517 79.6202 182.183 64.4625C182.524 63.0394 182.665 61.9028 182.622 60.929C182.622 59.8134 181.808 58.9473 180.678 58.9473H178.846H121.15H119.039C117.912 58.9473 117.098 59.8102 117.095 60.9228C117.095 60.9248 117.093 60.9264 117.091 60.9264C117.089 60.9263 117.088 60.928 117.088 60.9301C117.089 60.9537 117.091 60.9773 117.092 61.001C117.063 61.8491 117.171 62.8211 117.428 63.9965L117.428 63.9965Z" fill="#E09767"/>
<path d="M182.078 65.0278C182.114 64.84 182.149 64.6515 182.183 64.4625C182.524 63.0394 182.665 61.9028 182.622 60.929C182.622 59.8134 181.808 58.9473 180.678 58.9473H119.039C117.912 58.9473 117.098 59.8102 117.095 60.9228C117.095 60.9248 117.093 60.9264 117.091 60.9264C117.089 60.9263 117.088 60.928 117.088 60.9301L117.092 61.001C117.065 61.7776 117.154 62.658 117.366 63.7035C123.23 69.4767 135.85 73.4703 150.473 73.4703C163.949 73.4703 175.724 70.0785 182.078 65.0278Z" fill="#C07B4D"/>
<path d="M166.077 110.144C164.867 102.602 158.21 96.8337 150.181 96.8337C142.232 96.8337 135.63 102.486 134.323 109.916C134.155 110.614 134.086 111.171 134.107 111.648C134.107 112.195 134.507 112.62 135.06 112.62H135.959H164.252H165.287C165.84 112.62 166.239 112.197 166.241 111.651C166.241 111.65 166.241 111.649 166.242 111.649C166.243 111.65 166.244 111.649 166.244 111.648C166.243 111.636 166.243 111.624 166.242 111.613C166.256 111.197 166.203 110.721 166.077 110.144Z" fill="#E09767"/>
<path d="M165.955 109.474C166 109.696 166.041 109.919 166.077 110.144C166.203 110.72 166.256 111.197 166.242 111.613L166.244 111.647L166.242 111.649L166.24 111.651C166.239 112.196 165.84 112.619 165.287 112.619H135.06C134.506 112.619 134.107 112.195 134.107 111.648C134.086 111.171 134.155 110.613 134.322 109.916C134.328 109.887 134.333 109.858 134.338 109.829C139.103 107.184 144.609 105.674 150.475 105.674C156.073 105.674 161.343 107.049 165.955 109.474Z" fill="#C07B4D"/>
<path d="M159.789 95.2133C159.882 95.0383 160.133 95.0383 160.226 95.2133C161.026 96.7183 162.261 97.9495 163.768 98.7461C163.944 98.8391 163.944 99.0912 163.768 99.1842C162.261 99.9808 161.026 101.212 160.226 102.717C160.133 102.892 159.882 102.892 159.789 102.717C158.989 101.212 157.754 99.9808 156.247 99.1842C156.071 99.0912 156.071 98.8391 156.247 98.7461C157.754 97.9495 158.989 96.7183 159.789 95.2133Z" fill="white"/>
<path d="M173.022 43.0455C173.115 42.8705 173.366 42.8705 173.459 43.0455C174.259 44.5506 175.494 45.7818 177.001 46.5784C177.177 46.6714 177.177 46.9235 177.001 47.0165C175.494 47.8131 174.259 49.0443 173.459 50.5493C173.366 50.7243 173.115 50.7243 173.022 50.5493C172.222 49.0443 170.987 47.8131 169.48 47.0165C169.304 46.9235 169.304 46.6714 169.48 46.5784C170.987 45.7818 172.222 44.5506 173.022 43.0455Z" fill="#E09767"/>
<path d="M181.252 96.711C181.296 96.6278 181.415 96.6278 181.459 96.711C181.84 97.4268 182.427 98.0123 183.144 98.3912C183.228 98.4354 183.228 98.5553 183.144 98.5995C182.427 98.9784 181.84 99.5639 181.459 100.28C181.415 100.363 181.296 100.363 181.252 100.28C180.871 99.5639 180.284 98.9784 179.567 98.5995C179.483 98.5553 179.483 98.4354 179.567 98.3912C180.284 98.0123 180.871 97.4268 181.252 96.711Z" fill="#E09767"/>
<path d="M116.014 39.5662C116.058 39.483 116.178 39.483 116.222 39.5662C116.602 40.282 117.19 40.8675 117.907 41.2464C117.99 41.2906 117.99 41.4105 117.907 41.4547C117.19 41.8336 116.602 42.4191 116.222 43.1349C116.178 43.2181 116.058 43.2181 116.014 43.1349C115.633 42.4191 115.046 41.8336 114.329 41.4547C114.246 41.4105 114.246 41.2906 114.329 41.2464C115.046 40.8675 115.633 40.282 116.014 39.5662Z" fill="#E09767"/>
<path d="M67.0158 109.155C67.3286 108.407 68.0603 107.919 68.8714 107.919H133.97C134.781 107.919 135.513 108.407 135.825 109.155L139.439 117.803C139.993 119.128 139.02 120.59 137.584 120.59H65.2573C63.8213 120.59 62.848 119.128 63.4017 117.803L67.0158 109.155Z" fill="#773001"/>
<g opacity="0.2">
<path d="M85.5174 107.919H68.9458C68.0907 107.919 67.3196 108.432 66.9907 109.219L63.4607 117.666C63.0578 118.63 63.4264 119.662 64.1938 120.205C72.7865 118.903 80.3193 114.384 85.5174 107.919Z" fill="black"/>
<path d="M131.964 107.919H133.898C134.754 107.919 135.525 108.432 135.854 109.219L139.384 117.666C139.965 119.057 138.94 120.59 137.429 120.59H115.76C119.683 114.851 125.332 110.38 131.964 107.919Z" fill="black"/>
</g>
<path d="M83.4197 113.39C83.4197 113.219 83.5266 113.07 83.6662 112.972C84.0579 112.694 84.3198 112.19 84.3198 111.615C84.3198 111.348 84.5124 111.087 84.78 111.087H118.066C118.333 111.087 118.526 111.348 118.526 111.615C118.526 112.19 118.788 112.694 119.18 112.972C119.319 113.07 119.426 113.219 119.426 113.39V115.118C119.426 115.289 119.319 115.438 119.18 115.537C118.788 115.814 118.526 116.318 118.526 116.894C118.526 117.161 118.333 117.422 118.066 117.422H84.78C84.5124 117.422 84.3198 117.161 84.3198 116.894C84.3198 116.318 84.0579 115.814 83.6662 115.537C83.5266 115.438 83.4197 115.289 83.4197 115.118V113.39Z" fill="#FBAD36"/>
<path d="M86.5971 115.31C87.182 115.31 87.6561 114.837 87.6561 114.254C87.6561 113.671 87.182 113.198 86.5971 113.198C86.0122 113.198 85.5381 113.671 85.5381 114.254C85.5381 114.837 86.0122 115.31 86.5971 115.31Z" fill="#FECC50"/>
<path d="M116.249 115.31C116.834 115.31 117.308 114.837 117.308 114.254C117.308 113.671 116.834 113.198 116.249 113.198C115.665 113.198 115.19 113.671 115.19 114.254C115.19 114.837 115.665 115.31 116.249 115.31Z" fill="#FECC50"/>
<path opacity="0.2" d="M70.4561 107.919L51.394 22.3958H153.059L133.997 107.919H70.4561Z" fill="#FECC50"/>
<path d="M50.3113 30.1221C54.2621 54.7409 75.9794 73.5685 102.178 73.5685C128.112 73.5685 149.654 55.12 153.919 30.8676C154.466 28.5906 154.692 26.7721 154.622 25.214C154.622 23.429 153.319 22.0432 151.512 22.0432H148.581H56.2677H52.8893C51.0857 22.0432 49.784 23.4238 49.7792 25.2041C49.7792 25.2073 49.7765 25.2099 49.7733 25.2098C49.77 25.2096 49.7673 25.2124 49.7675 25.2157C49.7698 25.2535 49.7722 25.2913 49.7746 25.3291C49.7275 26.6862 49.901 28.2413 50.3113 30.1221H50.3113Z" fill="#FECC50"/>
<path d="M153.752 31.7721C153.81 31.4715 153.866 31.17 153.919 30.8676C154.466 28.5906 154.692 26.7721 154.622 25.214C154.622 23.429 153.319 22.0432 151.512 22.0432H52.8893C51.0857 22.0432 49.784 23.4238 49.7792 25.2041C49.7792 25.2073 49.7765 25.2099 49.7733 25.2098C49.77 25.2096 49.7673 25.2124 49.7675 25.2157L49.7746 25.3291C49.7315 26.5718 49.8733 27.9805 50.2125 29.6531C59.5949 38.8903 79.7872 45.2801 103.184 45.2801C124.746 45.2801 143.586 39.8532 153.752 31.7721Z" fill="#FBAD36"/>
<path d="M128.152 103.958C126.214 91.8902 115.565 82.661 102.717 82.661C89.9997 82.661 79.4357 91.7044 77.344 103.593C77.0762 104.709 76.9654 105.6 76.9992 106.364C76.9992 107.239 77.6383 107.918 78.5244 107.918H79.9618H125.231H126.888C127.772 107.918 128.41 107.242 128.413 106.369C128.413 106.367 128.414 106.366 128.416 106.366C128.417 106.366 128.419 106.365 128.419 106.363C128.417 106.345 128.416 106.326 128.415 106.308C128.438 105.642 128.353 104.88 128.152 103.958Z" fill="#FECC50"/>
<path d="M127.954 102.885C128.028 103.24 128.093 103.598 128.151 103.958C128.352 104.88 128.437 105.642 128.414 106.307L128.418 106.363L128.415 106.366L128.412 106.369C128.41 107.241 127.771 107.918 126.887 107.918H78.5235C77.6374 107.918 76.9984 107.239 76.9984 106.364C76.9645 105.6 77.0753 104.708 77.3431 103.592C77.3513 103.546 77.3596 103.5 77.368 103.453C84.992 99.2206 93.8017 96.8047 103.187 96.8047C112.143 96.8047 120.576 99.0053 127.954 102.885Z" fill="#FBAD36"/>
<path d="M118.089 80.0681C118.238 79.7881 118.639 79.7881 118.788 80.0681C120.068 82.4762 122.044 84.4461 124.456 85.7207C124.737 85.8694 124.737 86.2729 124.456 86.4216C122.044 87.6962 120.068 89.6661 118.788 92.0742C118.639 92.3542 118.238 92.3542 118.089 92.0742C116.808 89.6661 114.832 87.6962 112.421 86.4216C112.14 86.2729 112.14 85.8694 112.421 85.7207C114.832 84.4461 116.808 82.4762 118.089 80.0681Z" fill="white"/>
<path d="M147.476 3.00269C147.625 2.72271 148.027 2.72271 148.175 3.00269C149.456 5.4108 151.432 7.38069 153.843 8.65528C154.125 8.804 154.125 9.20747 153.843 9.3562C151.432 10.6308 149.456 12.6007 148.175 15.0088C148.027 15.2888 147.625 15.2888 147.476 15.0088C146.196 12.6007 144.22 10.6308 141.809 9.3562C141.527 9.20747 141.527 8.804 141.809 8.65528C144.22 7.38069 146.196 5.4108 147.476 3.00269Z" fill="#FECC50"/>
<path d="M56.4854 7.4466C56.5562 7.31345 56.7471 7.31345 56.8179 7.4466C57.4269 8.59186 58.3666 9.52871 59.5134 10.1349C59.6472 10.2056 59.6472 10.3975 59.5134 10.4682C58.3666 11.0744 57.4269 12.0112 56.8179 13.1565C56.7471 13.2897 56.5562 13.2897 56.4854 13.1565C55.8764 12.0112 54.9367 11.0744 53.7899 10.4682C53.6561 10.3975 53.6561 10.2056 53.7899 10.1349C54.9367 9.52871 55.8764 8.59186 56.4854 7.4466Z" fill="#FECC50"/>
<path d="M71.9069 51.6828C72.0834 51.3508 72.5591 51.3508 72.7357 51.6828C73.6043 53.3162 74.9433 54.6517 76.5788 55.5162C76.9123 55.6925 76.9123 56.1702 76.5788 56.3464C74.9433 57.211 73.6043 58.5465 72.7357 60.1798C72.5591 60.5118 72.0834 60.5118 71.9069 60.1798C71.0383 58.5465 69.6993 57.211 68.0638 56.3464C67.7303 56.1702 67.7303 55.6925 68.0638 55.5162C69.6993 54.6517 71.0383 53.3162 71.9069 51.6828Z" fill="white"/>
</g>
<defs>
<clipPath id="clip0_1269_19320">
<rect width="189.233" height="121" fill="white" transform="translate(0.883423)"/>
</clipPath>
</defs>
</svg>
